<?xml version="1.0" encoding="UTF-8"?>
<!DOCTYPE svg PUBLIC "-//W3C//DTD SVG 1.1//EN" "http://www.w3.org/Graphics/SVG/1.1/DTD/svg11.dtd">
<svg xmlns="http://www.w3.org/2000/svg" version="1.1" width="512px" height="512px" style="shape-rendering:geometricPrecision; text-rendering:geometricPrecision; image-rendering:optimizeQuality; fill-rule:evenodd; clip-rule:evenodd" xmlns:xlink="http://www.w3.org/1999/xlink">
<g><path style="opacity:0.996" fill="#80c684" d="M 291.5,50.5 C 309.231,86.9613 327.231,123.295 345.5,159.5C 240.833,159.5 136.167,159.5 31.5,159.5C 31.244,155.731 31.5773,152.064 32.5,148.5C 46.8176,142.008 60.8176,135.008 74.5,127.5C 96.1509,117.341 117.484,106.675 138.5,95.5C 180.807,74.3466 223.14,53.1799 265.5,32C 273.181,29.9993 279.681,31.8327 285,37.5C 287.18,41.8599 289.347,46.1932 291.5,50.5 Z"/></g>
<g><path style="opacity:0.991" fill="#4caf50" d="M 377.5,95.5 C 382.833,106.167 388.167,116.833 393.5,127.5C 398.833,138.167 404.167,148.833 409.5,159.5C 388.167,159.5 366.833,159.5 345.5,159.5C 327.231,123.295 309.231,86.9613 291.5,50.5C 304.267,44.6168 316.934,38.4501 329.5,32C 337.181,29.9993 343.681,31.8327 349,37.5C 358.783,56.7323 368.283,76.0656 377.5,95.5 Z"/></g>
<g><path style="opacity:0.999" fill="#2196f2" d="M 138.5,95.5 C 117.484,106.675 96.1509,117.341 74.5,127.5C 63.0898,127.067 51.7564,127.567 40.5,129C 32.8397,133.486 30.1731,139.986 32.5,148.5C 31.5773,152.064 31.244,155.731 31.5,159.5C 136.167,159.5 240.833,159.5 345.5,159.5C 366.833,159.5 388.167,159.5 409.5,159.5C 411.5,159.5 413.5,159.5 415.5,159.5C 415.5,148.833 415.5,138.167 415.5,127.5C 408.167,127.5 400.833,127.5 393.5,127.5C 388.167,116.833 382.833,106.167 377.5,95.5C 397.503,95.3334 417.503,95.5 437.5,96C 442,97.8333 445.167,101 447,105.5C 447.5,123.497 447.667,141.497 447.5,159.5C 454.841,159.334 462.174,159.5 469.5,160C 474,161.833 477.167,165 479,169.5C 479.5,198.165 479.667,226.831 479.5,255.5C 450.165,255.333 420.831,255.5 391.5,256C 361.77,264.394 348.937,283.894 353,314.5C 358.684,334.183 371.517,346.35 391.5,351C 420.831,351.5 450.165,351.667 479.5,351.5C 479.667,390.835 479.5,430.168 479,469.5C 477.167,474 474,477.167 469.5,479C 325.5,479.667 181.5,479.667 37.5,479C 17.6518,473.651 4.98517,461.151 -0.5,441.5C -0.5,338.833 -0.5,236.167 -0.5,133.5C 4.98517,113.849 17.6518,101.349 37.5,96C 71.165,95.5 104.832,95.3333 138.5,95.5 Z"/></g>
<g><path style="opacity:1" fill="#f7f8f9" d="M 74.5,127.5 C 60.8176,135.008 46.8176,142.008 32.5,148.5C 30.1731,139.986 32.8397,133.486 40.5,129C 51.7564,127.567 63.0898,127.067 74.5,127.5 Z"/></g>
<g><path style="opacity:1" fill="#f9f9f9" d="M 393.5,127.5 C 400.833,127.5 408.167,127.5 415.5,127.5C 415.5,138.167 415.5,148.833 415.5,159.5C 413.5,159.5 411.5,159.5 409.5,159.5C 404.167,148.833 398.833,138.167 393.5,127.5 Z"/></g>
<g><path style="opacity:0.998" fill="#1976d2" d="M 479.5,255.5 C 486.841,255.334 494.174,255.5 501.5,256C 506.02,258.022 509.353,261.189 511.5,265.5C 511.5,290.833 511.5,316.167 511.5,341.5C 509.353,345.811 506.02,348.978 501.5,351C 494.174,351.5 486.841,351.666 479.5,351.5C 450.165,351.667 420.831,351.5 391.5,351C 371.517,346.35 358.684,334.183 353,314.5C 348.937,283.894 361.77,264.394 391.5,256C 420.831,255.5 450.165,255.333 479.5,255.5 Z"/></g>
</svg>
